<?xml version="1.0" standalone="no"?><!DOCTYPE svg PUBLIC "-//W3C//DTD SVG 1.1//EN" "http://www.w3.org/Graphics/SVG/1.1/DTD/svg11.dtd"><svg t="1597111549689" class="icon" viewBox="0 0 1024 1024" version="1.1" xmlns="http://www.w3.org/2000/svg" p-id="3545" xmlns:xlink="http://www.w3.org/1999/xlink" width="200" height="200"><defs><style type="text/css"></style></defs><path d="M152.981 125.365h74.704v82.822l-74.704 0.028v138.084H871.02V208.215h-71.5v-82.85h71.5a82.85 82.85 0 0 1 82.85 82.85v662.804a82.85 82.85 0 0 1-82.85 82.85H152.98a82.85 82.85 0 0 1-82.85-82.85V208.215a82.85 82.85 0 0 1 82.85-82.85zM871.02 429.15H152.98v441.869H871.02v-441.87zM373.916 677.7v82.851H235.832v-82.85h138.084z m207.126 0v82.851H442.958v-82.85h138.084z m207.126 0v82.851H650.084v-82.85h138.084zM373.916 512v82.85H235.832V512h138.084z m207.126 0v82.85H442.958V512h138.084z m207.126 0v82.85H650.084V512h138.084zM752.432 70.13v138.085h-82.878V70.131h82.85z m-134.853 55.235v82.85l-207.927-0.028v-82.822H617.58zM362.538 70.13v138.084h-82.85V70.131h82.85z" fill="#1296db" p-id="3546"></path></svg>