<?xml version="1.0" standalone="no"?><!DOCTYPE svg PUBLIC "-//W3C//DTD SVG 1.1//EN" "http://www.w3.org/Graphics/SVG/1.1/DTD/svg11.dtd"><svg t="1597111699043" class="icon" viewBox="0 0 1024 1024" version="1.1" xmlns="http://www.w3.org/2000/svg" p-id="986" xmlns:xlink="http://www.w3.org/1999/xlink" width="200" height="200"><defs><style type="text/css"></style></defs><path d="M0 0h1024v1024H0z" fill="#f4ea2a" opacity=".01" p-id="987"></path><path d="M408.864 135.648a692.144 692.144 0 0 1 205.248 0c47.84 9.6 95.696 17.28 140.672 29.76a100.608 100.608 0 0 1 70.816 66.72c19.456 55.024 39.872 109.584 61.248 163.648 3.824 9.12 15.312 22.56 22 21.6a70.832 70.832 0 0 1 81.344 56.64c2.4 9.76 2.4 19.984 0 29.76l-54.56 14.88c3.392 19.04 5.632 38.272 6.72 57.584v265.888a75.968 75.968 0 0 1-16.272 44.16c-50.496 9.76-102.288 10.72-153.12 2.88-35.392-22.56-13.392-60.48-24.864-91.2H283.024c-9.088 32.64-14.352 87.36-24.88 91.2-51.92 9.12-105.024 9.12-156.944 0a86.08 86.08 0 0 1-17.216-50.88c-2.88-38.4-2.88-74.88-2.88-112.32 0-69.584 0-139.168 2.88-209.248l-50.72-13.44a55.36 55.36 0 0 1 0-23.52c14.352-38.4 33.488-68.144 82.768-63.824 5.76 0 16.752-11.52 20.096-20.16a1294.56 1294.56 0 0 0 47.84-131.024 162.8 162.8 0 0 1 143.552-118.544c26.32-4.8 53.6-8.16 79.904-12.48l1.44 1.92zM197.376 432.256a1506.928 1506.928 0 0 0 625.824 0c-17.696-53.28-35.392-100.8-47.84-148.784a79.488 79.488 0 0 0-79.424-63.84c-99.04-4.32-198.56-7.68-297.6-8.64a422.24 422.24 0 0 0-95.696 14.88c-14.4 2.96-26.976 11.616-34.928 24-26.8 58.08-46.88 118.08-70.336 182.384z m40.672 226.528c17.12 0.928 34.288-0.032 51.2-2.88a47.856 47.856 0 0 0 31.088-23.52c2.4-7.2-8.608-24.96-18.176-29.28a1116.16 1116.16 0 0 0-119.616-48c-20.096-6.72-43.056-5.28-47.84 23.04-9.568 41.76 0 64.8 31.088 71.52 24.4 4.8 47.84 5.76 74.64 8.16l-2.4 0.96z m551.68 0a680.768 680.768 0 0 0 75.104-9.6c35.888-8.16 28.224-37.44 27.28-62.88-0.96-25.44-14.352-37.44-33.984-31.68a1035.344 1035.344 0 0 0-143.52 54.72c-21.072 10.08-13.408 37.92 10.512 43.2 21.392 3.216 42.976 5.136 64.592 5.76v0.48z" fill="#f4ea2a" p-id="988"></path></svg>