<?xml version="1.0" standalone="no"?><!DOCTYPE svg PUBLIC "-//W3C//DTD SVG 1.1//EN" "http://www.w3.org/Graphics/SVG/1.1/DTD/svg11.dtd"><svg t="1597112130491" class="icon" viewBox="0 0 1024 1024" version="1.1" xmlns="http://www.w3.org/2000/svg" p-id="4220" xmlns:xlink="http://www.w3.org/1999/xlink" width="200" height="200"><defs><style type="text/css"></style></defs><path d="M1015.744516 484.32173l-303.085057-460.771202a59.900256 59.900256 0 0 0-94.202113 0L511.968002 184.820449 405.478658 23.03856a59.900256 59.900256 0 0 0-94.202113 0l-303.085057 460.771202a48.124992 48.124992 0 0 0 0 51.1968l303.085057 460.771202a57.340416 57.340416 0 0 0 94.202113 0L511.968002 837.579651l106.489344 161.781889a57.340416 57.340416 0 0 0 94.202113 0l303.085057-460.771202a48.124992 48.124992 0 0 0 0-54.268608zM358.377601 873.929379L119.800512 511.968002 358.377601 147.958753l89.082433 135.67152-132.087745 200.691457a48.124992 48.124992 0 0 0 0 51.1968l132.087745 201.203425z m153.590401-492.00125L596.95469 511.968002 511.968002 640.471971 426.981314 511.968002z m153.590401 492.00125l-89.082433-135.159552 132.087745-201.203425a48.124992 48.124992 0 0 0 0-51.1968l-132.087745-202.739329L665.558403 147.958753 904.135492 511.968002z" p-id="4221" fill="#d81e06"></path></svg>